<svg xmlns="http://www.w3.org/2000/svg" xmlns:xlink="http://www.w3.org/1999/xlink" width="96.063" height="52.5" viewBox="0 0 96.063 52.5">
  <defs>
    <style>
      .cls-1 {
        filter: url(#filter);
      }

      .cls-2 {
        fill: #fff;
        fill-rule: evenodd;
      }
    </style>
  </defs>
  <g id="logo_pc.svg" class="cls-1">
    <path id="Kirameki_Beauty_Labo" data-name="Kirameki Beauty Labo" class="cls-2" d="M215.46,71.357L212,67.031v0.687l3.349-3.939H213.27L210.3,67.406l3.07,3.95h2.093Zm-4.992,0V63.778h-1.685v7.578h1.685Zm6.843,0v-5.3h-1.179v5.3h1.179Zm3.149-2.187a2.177,2.177,0,0,0,.954-0.2,1.509,1.509,0,0,0,.631-0.545,1.576,1.576,0,0,0,0-1.627,1.535,1.535,0,0,0-.624-0.552,2.041,2.041,0,0,0-.924-0.2h-1.262v0.917h1.127a0.734,0.734,0,0,1,.541.188,0.7,0.7,0,0,1,0,.962,0.765,0.765,0,0,1-.545.18h-1.119V69.17h1.225Zm-0.947,2.187v-5.3h-1.18v5.3h1.18Zm3.1,0-1.969-2.577-1.082.293,1.654,2.284h1.4Zm1.172,0,1.616-4.4h-0.429l1.593,4.4h1.248l-2.082-5.3h-1.066l-2.1,5.3h1.224Zm2.863-.962V69.433h-2.893v0.962h2.893Zm2.9,0.962V68.043l-0.2.053,1.352,2.119h0.781l1.361-2.119-0.211-.053v3.314h1.18v-5.3h-0.849l-2.082,3.254h0.429l-2.089-3.254h-0.842v5.3h1.172Zm6.455,0v-5.3h-1.18v5.3h1.18Zm2.63,0V70.335h-2.908v1.022h2.908Zm-0.263-2.217V68.156h-2.645V69.14h2.645Zm0.225-2.074V66.052h-2.87v1.014h2.87Zm5.523,4.29-2.42-3.028v0.481l2.345-2.758h-1.458l-2.081,2.54,2.149,2.765h1.465Zm-3.494,0v-5.3h-1.18v5.3h1.18Zm5.162,0v-5.3h-1.18v5.3h1.18Zm6.511,0a3.037,3.037,0,0,0,1.38-.29,2.133,2.133,0,0,0,.88-0.789,2.1,2.1,0,0,0,.306-1.122,1.94,1.94,0,0,0-.521-1.374,2.625,2.625,0,0,0-1.476-.74l-0.043.569a2.441,2.441,0,0,0,1.331-.665,1.664,1.664,0,0,0,.451-1.181,1.885,1.885,0,0,0-1.047-1.718,2.632,2.632,0,0,0-1.239-.268h-1.965v1.31H252a1.039,1.039,0,0,1,.676.209,0.761,0.761,0,0,1,.258.628,0.773,0.773,0,0,1-.258.639,1.039,1.039,0,0,1-.676.21h-1.643V68.05h1.782a1.143,1.143,0,0,1,.564.129,0.917,0.917,0,0,1,.359.354,1.019,1.019,0,0,1,.129.515,0.983,0.983,0,0,1-.279.708,1.024,1.024,0,0,1-.773.29h-1.782v1.31H252.3Zm-1.567,0V63.778h-1.664v7.578h1.664Zm6.178,0v-5.3h-1.18v5.3h1.18Zm2.629,0V70.335h-2.907v1.022h2.907Zm-0.263-2.217V68.156h-2.644V69.14h2.644Zm0.226-2.074V66.052h-2.87v1.014h2.87Zm1.675,4.29,1.616-4.4h-0.428l1.593,4.4h1.247l-2.081-5.3h-1.067l-2.1,5.3h1.224Zm2.863-.962V69.433h-2.893v0.962h2.893Zm4.952,0.766a2,2,0,0,0,.774-0.766,2.225,2.225,0,0,0,.278-1.119V66.052h-1.187v3.291a1.072,1.072,0,0,1-.132.545,0.916,0.916,0,0,1-.357.353,1.071,1.071,0,0,1-.526.124,1.108,1.108,0,0,1-.522-0.124,0.909,0.909,0,0,1-.372-0.357,1.074,1.074,0,0,1-.135-0.548V66.052h-1.187v3.216a2.227,2.227,0,0,0,.281,1.123,2.01,2.01,0,0,0,.782.77A2.524,2.524,0,0,0,268.993,71.161Zm4.441,0.2v-5.23h-1.18v5.23h1.18Zm1.66-4.275V66.052h-4.5v1.029h4.5Zm2.893,2.3,2.059-3.329h-1.338l-1.57,2.69h0.879l-1.57-2.69h-1.368l2.044,3.329h0.864Zm0.173,1.976V68.839h-1.18v2.517h1.18Zm6.438,0V63.778h-1.685v7.578H284.6Zm3.36,0V69.875h-3.746v1.481h3.746Zm1.584,0,1.616-4.4h-0.429l1.593,4.4h1.248l-2.082-5.3h-1.067l-2.1,5.3h1.224Zm2.863-.962V69.433h-2.893v0.962H292.4Zm3.99,0.962a2.127,2.127,0,0,0,.966-0.2,1.5,1.5,0,0,0,.616-0.552,1.479,1.479,0,0,0,.214-0.785,1.358,1.358,0,0,0-.365-0.962,1.839,1.839,0,0,0-1.033-.518l-0.03.4a1.714,1.714,0,0,0,.932-0.466,1.168,1.168,0,0,0,.315-0.826,1.318,1.318,0,0,0-.732-1.2,1.848,1.848,0,0,0-.868-0.188h-1.375v0.917h1.15a0.726,0.726,0,0,1,.473.146,0.533,0.533,0,0,1,.18.439,0.543,0.543,0,0,1-.18.447,0.726,0.726,0,0,1-.473.147h-1.15v0.894h1.247a0.8,0.8,0,0,1,.4.09,0.649,0.649,0,0,1,.251.248,0.714,0.714,0,0,1,.091.36,0.689,0.689,0,0,1-.2.5,0.714,0.714,0,0,1-.541.2h-1.247v0.917h1.36Zm-1.1,0v-5.3h-1.165v5.3H295.3Zm7.277-.12a2.732,2.732,0,0,0,.883-0.583,2.677,2.677,0,0,0,.586-0.871,2.893,2.893,0,0,0,0-2.164,2.641,2.641,0,0,0-.59-0.872,2.716,2.716,0,0,0-.886-0.578,3.054,3.054,0,0,0-2.209,0,2.672,2.672,0,0,0-1.47,1.446,2.883,2.883,0,0,0,0,2.16,2.678,2.678,0,0,0,.594.875,2.78,2.78,0,0,0,.891.586,2.863,2.863,0,0,0,1.108.21A2.823,2.823,0,0,0,302.575,71.237Zm-1.754-.985a1.393,1.393,0,0,1-.5-0.342,1.539,1.539,0,0,1-.319-0.53,1.983,1.983,0,0,1-.113-0.684,1.859,1.859,0,0,1,.195-0.875,1.418,1.418,0,0,1,.552-0.579,1.63,1.63,0,0,1,.831-0.206,1.708,1.708,0,0,1,.642.116,1.4,1.4,0,0,1,.5.338,1.521,1.521,0,0,1,.323.526,1.949,1.949,0,0,1,.113.68,1.877,1.877,0,0,1-.2.876,1.423,1.423,0,0,1-.552.59,1.6,1.6,0,0,1-.83.21A1.68,1.68,0,0,1,300.821,70.252Z" transform="translate(-208.406 -18.938)"/>
    <path id="KBL" class="cls-2" d="M237.188,57.939L211.629,37v1.212l24.982-19.271h-2.827L209.61,37.63,234.3,57.939h2.885Zm-26.944,0v-39H208.4v39h1.846Zm48.58,0a15.617,15.617,0,0,0,6.693-1.327,9.932,9.932,0,0,0,5.943-9.4,9.96,9.96,0,0,0-2.222-6.52,10.882,10.882,0,0,0-6.144-3.635l-0.289.692a9.2,9.2,0,0,0,5.02-3.375,9.728,9.728,0,0,0,1.731-5.856,9.389,9.389,0,0,0-1.356-5.135,8.87,8.87,0,0,0-3.808-3.289,13.511,13.511,0,0,0-5.8-1.154H245.554V20.61h13.039a9.826,9.826,0,0,1,6.635,2.135,7.354,7.354,0,0,1,2.481,5.885,7.857,7.857,0,0,1-2.192,5.856,8.171,8.171,0,0,1-6,2.163H245.554v1.558h14.251a10.748,10.748,0,0,1,5.077,1.154,8.527,8.527,0,0,1,4.674,7.847,8.28,8.28,0,0,1-2.856,6.577,11.16,11.16,0,0,1-7.587,2.481H245.554v1.674h13.27Zm-12.347,0v-39h-1.846v39h1.846Zm36.176,0v-39h-1.847v39h1.847Zm21.809,0V56.266H281.845v1.674h22.617Z" transform="translate(-208.406 -18.938)"/>
  </g>
</svg>
