<svg xmlns="http://www.w3.org/2000/svg" xmlns:xlink="http://www.w3.org/1999/xlink" width="72.06" height="39" viewBox="0 0 72.06 39">
  <defs>
    <style>
      .cls-1 {
        filter: url(#filter);
      }

      .cls-2 {
        fill: #333;
        fill-rule: evenodd;
      }
    </style>
    <filter id="filter" filterUnits="userSpaceOnUse">
      <feFlood result="flood" flood-color="#fff"/>
      <feComposite result="composite" operator="in" in2="SourceGraphic"/>
      <feBlend result="blend" in2="SourceGraphic"/>
    </filter>
  </defs>
  <g id="footer_logo.svg" class="cls-1">
    <path id="Kirameki_Beauty_Labo" data-name="Kirameki Beauty Labo" class="cls-2" d="M2304.48,3968.94l-2.59-3.22v0.51l2.51-2.92h-1.56l-2.24,2.69,2.31,2.94h1.57Zm-3.75,0v-5.63h-1.26v5.63h1.26Zm5.14,0V3965h-0.89v3.94h0.89Zm2.36-1.63a1.728,1.728,0,0,0,.71-0.14,1.083,1.083,0,0,0,.65-1.01,1.141,1.141,0,0,0-.17-0.61,1.179,1.179,0,0,0-.47-0.41,1.666,1.666,0,0,0-.69-0.14h-0.95v0.68h0.85a0.516,0.516,0,0,1,.4.14,0.446,0.446,0,0,1,.14.35,0.49,0.49,0,0,1-.14.36,0.581,0.581,0,0,1-.41.14h-0.84v0.64h0.92Zm-0.71,1.63V3965h-0.89v3.94h0.89Zm2.33,0-1.48-1.92-0.81.22,1.24,1.7h1.05Zm0.88,0,1.21-3.27h-0.32l1.19,3.27h0.94l-1.56-3.94h-0.8l-1.58,3.94h0.92Zm2.14-.72v-0.71h-2.17v0.71h2.17Zm2.18,0.72v-2.46l-0.15.03,1.01,1.58h0.59l1.02-1.58-0.16-.03v2.46h0.89V3965h-0.64l-1.56,2.41h0.32l-1.57-2.41h-0.63v3.94h0.88Zm4.84,0V3965h-0.88v3.94h0.88Zm1.97,0v-0.76h-2.18v0.76h2.18Zm-0.19-1.65v-0.73h-1.99v0.73h1.99Zm0.17-1.54V3965h-2.16v0.75h2.16Zm4.14,3.19-1.82-2.25v0.36l1.76-2.05h-1.09l-1.56,1.88,1.61,2.06h1.1Zm-2.62,0V3965h-0.89v3.94h0.89Zm3.87,0V3965h-0.88v3.94h0.88Zm4.89,0a2.2,2.2,0,0,0,1.03-.22,1.566,1.566,0,0,0,.66-0.58,1.6,1.6,0,0,0,.23-0.84,1.445,1.445,0,0,0-.39-1.02,2.014,2.014,0,0,0-1.11-.55l-0.03.42a1.851,1.851,0,0,0,1-.49,1.257,1.257,0,0,0,.34-0.88,1.375,1.375,0,0,0-.79-1.27,1.883,1.883,0,0,0-.93-0.2h-1.47v0.97h1.23a0.76,0.76,0,0,1,.51.16,0.537,0.537,0,0,1,.19.46,0.578,0.578,0,0,1-.19.48,0.814,0.814,0,0,1-.51.15h-1.23v0.95h1.33a0.83,0.83,0,0,1,.43.1,0.746,0.746,0,0,1,.27.26,0.79,0.79,0,0,1,.09.38,0.724,0.724,0,0,1-.21.53,0.779,0.779,0,0,1-.58.21h-1.33v0.98h1.46Zm-1.18,0v-5.63h-1.25v5.63h1.25Zm4.63,0V3965h-0.88v3.94h0.88Zm1.98,0v-0.76h-2.18v0.76h2.18Zm-0.2-1.65v-0.73h-1.98v0.73h1.98Zm0.17-1.54V3965h-2.15v0.75h2.15Zm1.26,3.19,1.21-3.27h-0.32l1.19,3.27h0.94l-1.56-3.94h-0.8l-1.58,3.94h0.92Zm2.14-.72v-0.71h-2.17v0.71h2.17Zm3.72,0.57a1.446,1.446,0,0,0,.58-0.57,1.625,1.625,0,0,0,.21-0.83V3965h-0.89v2.44a0.887,0.887,0,0,1-.1.41,0.746,0.746,0,0,1-.27.26,0.8,0.8,0,0,1-.39.09,0.872,0.872,0,0,1-.4-0.09,0.639,0.639,0,0,1-.27-0.27,0.748,0.748,0,0,1-.11-0.4V3965h-0.89v2.39a1.53,1.53,0,0,0,.8,1.4A1.886,1.886,0,0,0,2344.64,3968.79Zm3.33,0.15v-3.89h-0.89v3.89h0.89Zm1.25-3.18V3965h-3.38v0.76h3.38Zm2.17,1.71,1.54-2.47h-1l-1.18,1.99h0.66l-1.18-1.99h-1.03l1.54,2.47h0.65Zm0.13,1.47v-1.87h-0.89v1.87h0.89Zm4.83,0v-5.63h-1.27v5.63h1.27Zm2.52,0v-1.1h-2.81v1.1h2.81Zm1.18,0,1.22-3.27h-0.32l1.19,3.27h0.94l-1.57-3.94h-0.8l-1.57,3.94h0.91Zm2.15-.72v-0.71h-2.17v0.71h2.17Zm3,0.72a1.6,1.6,0,0,0,.72-0.15,1.149,1.149,0,0,0,.46-0.41,1.09,1.09,0,0,0,.16-0.59,1,1,0,0,0-.27-0.71,1.443,1.443,0,0,0-.78-0.39l-0.02.3a1.257,1.257,0,0,0,.7-0.35,0.837,0.837,0,0,0,.24-0.61,1.038,1.038,0,0,0-.14-0.52,0.983,0.983,0,0,0-.41-0.37,1.327,1.327,0,0,0-.65-0.14h-1.03v0.68h0.86a0.507,0.507,0,0,1,.35.11,0.388,0.388,0,0,1,.14.32,0.429,0.429,0,0,1-.14.34,0.558,0.558,0,0,1-.35.1h-0.86v0.67h0.93a0.556,0.556,0,0,1,.3.07,0.469,0.469,0,0,1,.19.18,0.6,0.6,0,0,1,.06.27,0.549,0.549,0,0,1-.14.37,0.559,0.559,0,0,1-.41.15h-0.93v0.68h1.02Zm-0.83,0V3965h-0.87v3.94h0.87Zm5.46-.09a2.039,2.039,0,0,0,.66-0.43,1.919,1.919,0,0,0,.44-0.65,2.105,2.105,0,0,0,0-1.61,1.919,1.919,0,0,0-.44-0.65,2.06,2.06,0,0,0-1.49-.58,2.228,2.228,0,0,0-.83.15,2.039,2.039,0,0,0-.66.43,2.061,2.061,0,0,0-.44,2.25,1.826,1.826,0,0,0,.44.65,2.164,2.164,0,0,0,.67.44A2.344,2.344,0,0,0,2369.83,3968.85Zm-1.31-.73a1.029,1.029,0,0,1-.38-0.26,1.28,1.28,0,0,1-.24-0.39,1.366,1.366,0,0,1-.08-0.51,1.481,1.481,0,0,1,.14-0.65,1.086,1.086,0,0,1,.42-0.43,1.237,1.237,0,0,1,.62-0.15,1.419,1.419,0,0,1,.48.08,1.119,1.119,0,0,1,.38.26,1.28,1.28,0,0,1,.24.39,1.589,1.589,0,0,1-.06,1.15,1.05,1.05,0,0,1-.42.44,1.241,1.241,0,0,1-.62.16A1.209,1.209,0,0,1,2368.52,3968.12Z" transform="translate(-2299.19 -3930)"/>
    <path id="KBL" class="cls-2" d="M2320.78,3958.97l-19.18-15.56v0.9l18.75-14.32h-2.13l-18.13,13.89,18.52,15.09h2.17Zm-20.21,0v-28.98h-1.39v28.98h1.39Zm36.44,0a11.769,11.769,0,0,0,5.02-.99,7.632,7.632,0,0,0,3.29-2.78,7.533,7.533,0,0,0,1.17-4.2,7.384,7.384,0,0,0-1.67-4.85,8.213,8.213,0,0,0-4.61-2.7l-0.21.52a6.889,6.889,0,0,0,3.76-2.51,7.166,7.166,0,0,0,1.3-4.35,6.916,6.916,0,0,0-1.02-3.82,6.628,6.628,0,0,0-2.85-2.44,10.261,10.261,0,0,0-4.35-.86h-9.79v1.25h9.79a7.444,7.444,0,0,1,4.97,1.58,5.463,5.463,0,0,1,1.87,4.38,5.819,5.819,0,0,1-1.65,4.35,6.176,6.176,0,0,1-4.5,1.6h-10.48v1.16h10.7a8.1,8.1,0,0,1,3.8.86,6.325,6.325,0,0,1,3.51,5.83,6.093,6.093,0,0,1-2.14,4.88,8.431,8.431,0,0,1-5.69,1.85h-10.18v1.24h9.96Zm-9.26,0v-28.98h-1.39v28.98h1.39Zm27.14,0v-28.98h-1.39v28.98h1.39Zm16.36,0v-1.24h-16.97v1.24h16.97Z" transform="translate(-2299.19 -3930)"/>
  </g>
</svg>
