<svg xmlns="http://www.w3.org/2000/svg" width="72.06" height="28.97" viewBox="0 0 72.06 28.97">
  <defs>
    <style>
      .cls-1 {
        fill: #333;
        fill-rule: evenodd;
      }
    </style>
  </defs>
  <path id="footer_logo_sp.svg" class="cls-1" d="M2320.78,3958.97l-19.18-15.56v0.9l18.75-14.32h-2.13l-18.13,13.89,18.52,15.09h2.17Zm-20.21,0v-28.98h-1.39v28.98h1.39Zm36.44,0a11.769,11.769,0,0,0,5.02-.99,7.632,7.632,0,0,0,3.29-2.78,7.533,7.533,0,0,0,1.17-4.2,7.384,7.384,0,0,0-1.67-4.85,8.213,8.213,0,0,0-4.61-2.7l-0.21.52a6.889,6.889,0,0,0,3.76-2.51,7.166,7.166,0,0,0,1.3-4.35,6.916,6.916,0,0,0-1.02-3.82,6.628,6.628,0,0,0-2.85-2.44,10.261,10.261,0,0,0-4.35-.86h-9.79v1.25h9.79a7.444,7.444,0,0,1,4.97,1.58,5.463,5.463,0,0,1,1.87,4.38,5.819,5.819,0,0,1-1.65,4.35,6.176,6.176,0,0,1-4.5,1.6h-10.48v1.16h10.7a8.1,8.1,0,0,1,3.8.86,6.325,6.325,0,0,1,3.51,5.83,6.093,6.093,0,0,1-2.14,4.88,8.431,8.431,0,0,1-5.69,1.85h-10.18v1.24h9.96Zm-9.26,0v-28.98h-1.39v28.98h1.39Zm27.14,0v-28.98h-1.39v28.98h1.39Zm16.36,0v-1.24h-16.97v1.24h16.97Z" transform="translate(-2299.19 -3930)"/>
</svg>
