<svg xmlns="http://www.w3.org/2000/svg" width="71" height="28.97" viewBox="0 0 71 28.97">
  <defs>
    <style>
      .cls-1 {
        fill: #333;
        fill-rule: evenodd;
      }
    </style>
  </defs>
  <path id="point_logo_sp.svg" class="cls-1" d="M2240.28,1163.97l-18.89-15.56v0.9l18.47-14.32h-2.09l-17.87,13.89,18.25,15.09h2.13Zm-19.91,0v-28.98h-1.36v28.98h1.36Zm35.9,0a11.474,11.474,0,0,0,4.95-.99,7.55,7.55,0,0,0,3.24-2.78,7.687,7.687,0,0,0,1.15-4.2,7.47,7.47,0,0,0-1.64-4.85,8.089,8.089,0,0,0-4.54-2.7l-0.22.52a6.793,6.793,0,0,0,3.71-2.51,7.291,7.291,0,0,0,1.28-4.35,6.993,6.993,0,0,0-1-3.82,6.634,6.634,0,0,0-2.81-2.44,9.98,9.98,0,0,0-4.29-.86h-9.64v1.25h9.64a7.25,7.25,0,0,1,4.9,1.58,5.473,5.473,0,0,1,1.84,4.38,5.878,5.878,0,0,1-1.62,4.35,6.029,6.029,0,0,1-4.44,1.6h-10.32v1.16H2257a7.919,7.919,0,0,1,3.75.86,6.367,6.367,0,0,1,3.45,5.83,6.131,6.131,0,0,1-2.11,4.88,8.232,8.232,0,0,1-5.61,1.85h-10.02v1.24h9.81Zm-9.12,0v-28.98h-1.37v28.98h1.37Zm26.73,0v-28.98h-1.36v28.98h1.36Zm16.12,0v-1.24h-16.72v1.24H2290Z" transform="translate(-2219 -1135)"/>
</svg>
